<svg width="826" height="294" viewBox="0 0 826 294" fill="none" xmlns="http://www.w3.org/2000/svg">
<rect width="747.707" height="293.135" rx="130" fill="#5B6477"/>
<path d="M776.403 29.8113L776.995 20.8307L786.585 21.4626L785.325 30.9905L776.403 29.8113ZM776.403 29.8113C776.995 20.8307 776.992 20.8306 776.989 20.8304L776.982 20.8299L776.967 20.829L776.928 20.8265C776.898 20.8247 776.861 20.8225 776.815 20.82C776.725 20.8149 776.604 20.8086 776.455 20.8017C776.156 20.7881 775.741 20.7722 775.22 20.7598C774.178 20.735 772.709 20.7238 770.895 20.7716C767.276 20.8672 762.232 21.1991 756.438 22.145C744.983 24.0145 729.864 28.4011 717.164 38.8136L717.164 38.8138C704.465 49.2271 697.201 63.1945 693.123 74.0603C691.059 79.5577 689.746 84.4382 688.943 87.9686C688.54 89.7382 688.263 91.1809 688.083 92.207C687.994 92.7205 687.928 93.1307 687.883 93.4266C687.86 93.5745 687.843 93.694 687.83 93.7836C687.823 93.8284 687.818 93.8658 687.814 93.8955L687.809 93.9343L687.807 93.9494L687.806 93.9559C687.806 93.9588 687.805 93.9616 696.728 95.1413M776.403 29.8113C785.325 30.9905 785.325 30.9933 785.325 30.9963L785.324 31.0027L785.322 31.0178L785.316 31.0567C785.312 31.0864 785.307 31.1237 785.301 31.1685C785.288 31.2581 785.271 31.3776 785.248 31.5256C785.203 31.8215 785.137 32.2317 785.047 32.7451C784.867 33.7713 784.591 35.214 784.188 36.9836C783.385 40.514 782.072 45.3945 780.009 50.8919C775.931 61.7576 768.667 75.7249 755.968 86.1375M696.728 95.1413C696.136 104.122 696.139 104.122 696.142 104.122L696.148 104.123L696.163 104.124L696.202 104.126C696.232 104.128 696.27 104.13 696.315 104.133C696.406 104.138 696.526 104.144 696.676 104.151C696.975 104.165 697.39 104.18 697.911 104.193C698.952 104.218 700.422 104.229 702.236 104.181C705.855 104.085 710.899 103.753 716.694 102.807C728.148 100.938 743.268 96.5509 755.968 86.1375M696.728 95.1413L687.805 93.9616L686.545 103.49L696.136 104.122L696.728 95.1413ZM755.968 86.1375L750.261 79.1779L755.968 86.1375ZM705.647 96.3415C705.647 96.3416 705.647 96.3416 705.647 96.3415L705.647 96.3415Z" fill="#5B6477" stroke="#5B6477" stroke-width="18"/>
<path d="M800 86.9877L804.487 79.1861L812.818 83.978L807.49 91.977L800 86.9877ZM800 86.9877C807.49 91.977 807.489 91.9794 807.487 91.9818L807.483 91.9872L807.475 91.9999L807.453 92.0324C807.436 92.0573 807.415 92.0886 807.39 92.126C807.339 92.2008 807.271 92.3004 807.185 92.4233C807.014 92.669 806.774 93.0083 806.468 93.4296C805.854 94.2717 804.97 95.4449 803.829 96.8563C801.553 99.6721 798.224 103.475 793.95 107.501C785.503 115.46 772.828 124.8 756.84 128.554L756.84 128.554C740.852 132.308 725.345 129.585 714.239 126.218C708.619 124.515 703.945 122.591 700.654 121.082C699.004 120.326 697.691 119.669 696.766 119.188C696.304 118.947 695.938 118.75 695.676 118.606C695.545 118.534 695.439 118.475 695.36 118.431C695.321 118.409 695.288 118.39 695.262 118.375L695.228 118.356L695.215 118.348L695.209 118.345C695.207 118.344 695.204 118.342 699.691 110.541M800 86.9877C804.487 79.1861 804.485 79.1847 804.482 79.1833L804.476 79.18L804.463 79.1725L804.429 79.153C804.416 79.1458 804.402 79.1377 804.386 79.1288C804.37 79.1193 804.351 79.1089 804.331 79.0975C804.252 79.0531 804.146 78.9943 804.015 78.9223C803.753 78.7783 803.387 78.5812 802.925 78.3405C802.001 77.8594 800.687 77.2023 799.037 76.4461C795.746 74.9375 791.072 73.0139 785.453 71.3104C774.346 67.9433 758.839 65.2213 742.852 68.9757L742.851 68.9758C726.863 72.7296 714.189 82.0686 705.741 90.027C701.467 94.0534 698.138 97.8563 695.862 100.672C694.721 102.083 693.837 103.257 693.224 104.099C692.917 104.52 692.677 104.859 692.506 105.105C692.421 105.228 692.352 105.328 692.301 105.402C692.276 105.44 692.255 105.471 692.238 105.496L692.216 105.528L692.208 105.541L692.204 105.547C692.203 105.549 692.201 105.551 699.691 110.541M699.691 110.541L692.201 105.551L686.873 113.55L695.204 118.342L699.691 110.541Z" fill="#5B6477" stroke="#5B6477" stroke-width="18"/>
<path fill-rule="evenodd" clip-rule="evenodd" d="M730.738 122.108C732.754 131.912 733.779 142.026 733.779 152.279C733.779 223.44 681.781 274.476 596.799 275.005C511.819 274.476 459.82 223.44 459.82 152.279C459.82 81.1092 509.202 16.6421 596.799 15.9934C646.032 16.358 683.194 36.882 706.301 67.4251C710.149 60.2902 715.411 53.0282 722.558 47.1679C744.559 29.1283 776.09 31.2059 776.09 31.2059C776.09 31.2059 772.351 59.4974 753.097 77.7908C777.636 75.6993 799.687 88.3825 799.687 88.3825C799.687 88.3825 782.169 114.682 754.47 121.187C746.301 123.105 738.159 123.087 730.738 122.108Z" fill="#79A1ED"/>
<path d="M696.776 152.279C691.745 115.077 645.611 102.166 596.799 102.101C547.985 102.166 501.851 115.077 496.82 152.279C493.432 177.326 510.49 217.018 576.296 201.727C589.73 198.605 603.768 198.627 617.179 201.838C683.232 217.648 700.166 177.347 696.776 152.279Z" fill="#F4F7FB"/>
<path d="M564.417 159.476C564.417 149.987 561.137 142.642 553.395 139.423C548.993 137.592 543.937 137.691 539.563 139.559C531.806 142.871 528.251 149.928 528.251 159.476C528.251 159.53 528.257 159.583 528.258 159.638C528.257 159.693 528.251 159.744 528.251 159.801C528.251 169.287 531.53 176.633 539.273 179.853C543.675 181.682 548.732 181.583 553.106 179.717C560.862 176.405 564.417 169.348 564.417 159.801C564.417 159.744 564.41 159.693 564.41 159.638C564.41 159.583 564.417 159.53 564.417 159.476Z" fill="#5B6477"/>
<path d="M629.183 159.476C629.183 149.987 632.462 142.642 640.205 139.423C644.607 137.592 649.664 137.691 654.038 139.559C661.794 142.871 665.349 149.928 665.349 159.476C665.349 159.53 665.342 159.583 665.342 159.638C665.342 159.693 665.349 159.744 665.349 159.801C665.349 169.287 662.07 176.633 654.327 179.853C649.925 181.682 644.869 181.583 640.495 179.717C632.738 176.405 629.183 169.348 629.183 159.801C629.183 159.744 629.189 159.693 629.19 159.638C629.189 159.583 629.183 159.53 629.183 159.476Z" fill="#5B6477"/>
<path d="M67.0077 199.178C62.5277 199.178 59.061 197.952 56.6077 195.498C54.1543 193.045 52.9277 189.472 52.9277 184.778V131.818C52.9277 127.232 54.101 123.712 56.4477 121.258C58.901 118.805 62.3677 117.578 66.8477 117.578C71.3277 117.578 74.741 118.805 77.0877 121.258C79.4343 123.712 80.6077 127.232 80.6077 131.818V139.338L78.8477 132.778C81.4077 127.765 85.0343 123.925 89.7277 121.258C94.5277 118.592 99.9677 117.258 106.048 117.258C112.341 117.258 117.514 118.485 121.568 120.938C125.621 123.285 128.661 127.018 130.688 132.138C132.714 137.152 133.728 143.498 133.728 151.178V184.778C133.728 189.472 132.501 193.045 130.048 195.498C127.594 197.952 124.074 199.178 119.488 199.178C114.901 199.178 111.381 197.952 108.928 195.498C106.474 193.045 105.248 189.472 105.248 184.778V152.298C105.248 147.498 104.394 144.085 102.688 142.058C101.088 140.032 98.6877 139.018 95.4877 139.018C91.221 139.018 87.8077 140.405 85.2477 143.178C82.6877 145.845 81.4077 149.472 81.4077 154.058V184.778C81.4077 194.378 76.6077 199.178 67.0077 199.178ZM164.039 199.178C159.559 199.178 156.092 197.845 153.639 195.178C151.186 192.512 149.959 188.672 149.959 183.658V133.098C149.959 128.085 151.186 124.245 153.639 121.578C156.092 118.912 159.559 117.578 164.039 117.578C168.626 117.578 172.146 118.912 174.599 121.578C177.159 124.245 178.439 128.085 178.439 133.098V183.658C178.439 188.672 177.212 192.512 174.759 195.178C172.306 197.845 168.732 199.178 164.039 199.178ZM164.039 106.218C159.026 106.218 155.132 105.045 152.359 102.698C149.692 100.352 148.359 96.9383 148.359 92.4583C148.359 88.085 149.692 84.725 152.359 82.3783C155.132 80.0317 159.026 78.8583 164.039 78.8583C169.266 78.8583 173.212 80.0317 175.879 82.3783C178.546 84.725 179.879 88.085 179.879 92.4583C179.879 96.9383 178.546 100.352 175.879 102.698C173.212 105.045 169.266 106.218 164.039 106.218ZM209.039 199.178C204.559 199.178 201.092 197.952 198.639 195.498C196.186 193.045 194.959 189.472 194.959 184.778V131.818C194.959 127.232 196.132 123.712 198.479 121.258C200.932 118.805 204.399 117.578 208.879 117.578C213.359 117.578 216.772 118.805 219.119 121.258C221.466 123.712 222.639 127.232 222.639 131.818V139.338L220.879 132.778C223.439 127.765 227.066 123.925 231.759 121.258C236.559 118.592 241.999 117.258 248.079 117.258C254.372 117.258 259.546 118.485 263.599 120.938C267.652 123.285 270.692 127.018 272.719 132.138C274.746 137.152 275.759 143.498 275.759 151.178V184.778C275.759 189.472 274.532 193.045 272.079 195.498C269.626 197.952 266.106 199.178 261.519 199.178C256.932 199.178 253.412 197.952 250.959 195.498C248.506 193.045 247.279 189.472 247.279 184.778V152.298C247.279 147.498 246.426 144.085 244.719 142.058C243.119 140.032 240.719 139.018 237.519 139.018C233.252 139.018 229.839 140.405 227.279 143.178C224.719 145.845 223.439 149.472 223.439 154.058V184.778C223.439 194.378 218.639 199.178 209.039 199.178ZM287.35 227.658C284.043 227.765 281.43 227.178 279.51 225.898C277.483 224.618 276.097 223.018 275.35 221.098C274.603 219.178 274.443 217.205 274.87 215.178C275.19 213.258 276.043 211.552 277.43 210.058C278.817 208.672 280.577 207.872 282.71 207.658C286.23 207.445 288.79 206.485 290.39 204.778C291.99 203.178 292.79 200.672 292.79 197.258V131.818C292.79 127.232 294.017 123.712 296.47 121.258C298.924 118.805 302.444 117.578 307.03 117.578C311.617 117.578 315.137 118.805 317.59 121.258C320.044 123.712 321.27 127.232 321.27 131.818V194.538C321.27 201.685 320.044 207.658 317.59 212.458C315.137 217.365 311.404 221.045 306.39 223.498C301.483 226.058 295.137 227.445 287.35 227.658ZM306.87 106.218C301.75 106.218 297.803 105.045 295.03 102.698C292.363 100.352 291.03 96.9383 291.03 92.4583C291.03 88.085 292.363 84.725 295.03 82.3783C297.803 80.0317 301.75 78.8583 306.87 78.8583C311.99 78.8583 315.884 80.0317 318.55 82.3783C321.324 84.725 322.71 88.085 322.71 92.4583C322.71 96.9383 321.324 100.352 318.55 102.698C315.884 105.045 311.99 106.218 306.87 106.218ZM365.288 199.498C359.208 199.498 353.821 198.378 349.128 196.138C344.541 193.898 340.914 190.858 338.248 187.018C335.688 183.072 334.408 178.592 334.408 173.578C334.408 167.818 335.901 163.285 338.888 159.978C341.874 156.672 346.674 154.325 353.288 152.938C359.901 151.445 368.701 150.698 379.688 150.698H388.488V164.138H379.688C375.528 164.138 372.061 164.458 369.288 165.098C366.621 165.632 364.648 166.538 363.368 167.818C362.088 168.992 361.448 170.538 361.448 172.458C361.448 174.912 362.301 176.938 364.008 178.538C365.821 180.138 368.381 180.938 371.688 180.938C374.354 180.938 376.701 180.352 378.728 179.178C380.861 178.005 382.568 176.405 383.848 174.378C385.128 172.245 385.768 169.792 385.768 167.018V148.458C385.768 144.618 384.754 141.898 382.728 140.298C380.808 138.698 377.448 137.898 372.648 137.898C370.088 137.898 367.208 138.218 364.008 138.858C360.808 139.392 357.234 140.405 353.288 141.898C350.408 142.965 347.954 143.125 345.928 142.378C343.901 141.632 342.301 140.352 341.128 138.538C340.061 136.725 339.528 134.752 339.528 132.618C339.634 130.485 340.328 128.458 341.608 126.538C342.994 124.618 345.074 123.125 347.848 122.058C352.968 120.138 357.661 118.858 361.928 118.218C366.301 117.578 370.301 117.258 373.928 117.258C382.674 117.258 389.874 118.538 395.528 121.098C401.288 123.552 405.554 127.392 408.328 132.618C411.208 137.738 412.648 144.352 412.648 152.458V184.778C412.648 189.472 411.528 193.045 409.288 195.498C407.048 197.952 403.794 199.178 399.528 199.178C395.154 199.178 391.794 197.952 389.448 195.498C387.208 193.045 386.088 189.472 386.088 184.778V180.618L387.048 182.858C386.514 186.272 385.288 189.205 383.368 191.658C381.448 194.112 378.941 196.032 375.848 197.418C372.754 198.805 369.234 199.498 365.288 199.498Z" fill="#F4F7FB"/>
</svg>
